<svg xmlns="http://www.w3.org/2000/svg" viewBox="0 0 64 64">
  <defs>
    <linearGradient id="g" x1="0" y1="0" x2="1" y2="1">
      <stop offset="0" stop-color="#3c8dbc"/>
      <stop offset="1" stop-color="#357ca5"/>
    </linearGradient>
  </defs>
  <circle cx="32" cy="32" r="31" fill="url(#g)"/>
  <path fill="#ffffff" d="M18 22c0-2.76 2.24-5 5-5s5 2.24 5 5-2.24 5-5 5-5-2.24-5-5zm8-7c0-2.76 2.24-5 5-5s5 2.24 5 5-2.24 5-5 5-5-2.24-5-5zm13 2c0-2.76 2.24-5 5-5s5 2.24 5 5-2.24 5-5 5-5-2.24-5-5zm-2 9c-7.73 0-14 5.27-14 11.5 0 6.07 4.98 9.5 14 9.5s14-3.43 14-9.5c0-6.23-6.27-11.5-14-11.5z"/>
</svg>
